<svg width="335" height="50" viewBox="0 0 335 50" fill="none" xmlns="http://www.w3.org/2000/svg">
<rect width="335" height="50" rx="10" fill="#4267B2"/>
<rect x="116" y="14" width="22" height="22" rx="11" fill="#4267B2"/>
<path d="M127.734 32.3333V25.6431H129.98L130.316 23.0358H127.734V21.3711C127.734 20.6163 127.944 20.1018 129.027 20.1018L130.407 20.1012V17.7693C130.168 17.7376 129.349 17.6667 128.395 17.6667C126.405 17.6667 125.042 18.8817 125.042 21.1131V23.0359H122.791V25.6431H125.042V32.3333L127.734 32.3333Z" fill="#FEFEFE"/>
<path d="M145.619 31V26.1108H150.641V24.3677H145.619V20.8232H151.114V19.022H143.478V31H145.619ZM154.882 31.1494C156.069 31.1494 157.065 30.6348 157.571 29.7549H157.712V31H159.696V24.7993C159.696 22.8818 158.384 21.7529 156.052 21.7529C153.894 21.7529 152.391 22.7656 152.225 24.3511H154.168C154.359 23.7285 155.006 23.3882 155.952 23.3882C157.065 23.3882 157.662 23.8945 157.662 24.7993V25.5796L155.321 25.7207C153.113 25.8452 151.877 26.7998 151.877 28.4268C151.877 30.0869 153.13 31.1494 154.882 31.1494ZM155.488 29.564C154.574 29.564 153.919 29.1074 153.919 28.3271C153.919 27.5718 154.458 27.1484 155.612 27.0737L157.662 26.9326V27.6714C157.662 28.7505 156.733 29.564 155.488 29.564ZM169.614 24.957C169.398 23.0811 167.987 21.7529 165.655 21.7529C162.924 21.7529 161.322 23.5044 161.322 26.4429C161.322 29.4146 162.932 31.1826 165.663 31.1826C167.962 31.1826 169.39 29.9043 169.614 28.0283H167.655C167.439 28.9829 166.726 29.4893 165.655 29.4893C164.252 29.4893 163.405 28.3687 163.405 26.4429C163.405 24.5503 164.244 23.438 165.655 23.438C166.784 23.438 167.464 24.0771 167.655 24.957H169.614ZM177.092 28.5181C176.793 29.1987 176.088 29.5806 175.067 29.5806C173.714 29.5806 172.842 28.6177 172.792 27.082V26.9741H179.134V26.3184C179.134 23.4712 177.582 21.7529 174.992 21.7529C172.36 21.7529 170.725 23.5874 170.725 26.501C170.725 29.4062 172.336 31.1826 175.008 31.1826C177.15 31.1826 178.669 30.1533 179.043 28.5181H177.092ZM174.984 23.355C176.22 23.355 177.034 24.2266 177.075 25.6045H172.8C172.892 24.2432 173.755 23.355 174.984 23.355ZM185.84 31.1494C188.131 31.1494 189.567 29.3481 189.567 26.4678C189.567 23.5708 188.139 21.7778 185.84 21.7778C184.595 21.7778 183.549 22.3838 183.076 23.3716H182.934V18.416L180.876 18.416V31H182.86V29.564H183.001C183.515 30.5601 184.57 31.1494 185.84 31.1494ZM185.192 23.4961C186.595 23.4961 187.45 24.6167 187.45 26.4678C187.45 28.3188 186.603 29.4395 185.192 29.4395C183.781 29.4395 182.901 28.3022 182.901 26.4678C182.901 24.6333 183.789 23.4961 185.192 23.4961ZM195.144 31.1826C197.858 31.1826 199.51 29.4062 199.51 26.4595C199.51 23.5293 197.85 21.7529 195.144 21.7529C192.446 21.7529 190.777 23.5376 190.777 26.4595C190.777 29.4062 192.421 31.1826 195.144 31.1826ZM195.144 29.4976C193.708 29.4976 192.886 28.3853 192.886 26.4678C192.886 24.5503 193.708 23.438 195.144 23.438C196.571 23.438 197.393 24.5503 197.393 26.4678C197.393 28.3853 196.58 29.4976 195.144 29.4976ZM205.095 31.1826C207.809 31.1826 209.461 29.4062 209.461 26.4595C209.461 23.5293 207.801 21.7529 205.095 21.7529C202.397 21.7529 200.729 23.5376 200.729 26.4595C200.729 29.4062 202.372 31.1826 205.095 31.1826ZM205.095 29.4976C203.659 29.4976 202.837 28.3853 202.837 26.4678C202.837 24.5503 203.659 23.438 205.095 23.438C206.523 23.438 207.344 24.5503 207.344 26.4678C207.344 28.3853 206.531 29.4976 205.095 29.4976ZM213.411 25.646H213.27V18.416H211.211V31H213.27V27.8125L214 27.082L216.914 31H219.404L215.536 25.8203L219.155 21.9272H216.765L213.411 25.646Z" fill="white"/>
</svg>
