<svg width="335" height="50" viewBox="0 0 335 50" fill="none" xmlns="http://www.w3.org/2000/svg">
<rect width="335" height="50" rx="10" fill="#EA4335"/>
<rect x="126" y="14" width="22" height="22" rx="11" fill="#EA4335"/>
<path d="M129.671 25.0096C129.525 21.1506 132.905 17.5844 136.768 17.5381C138.736 17.3702 140.652 18.1347 142.142 19.3817C141.531 20.0537 140.909 20.718 140.245 21.3398C138.933 20.5429 137.354 19.9356 135.821 20.475C133.348 21.179 131.851 24.0984 132.766 26.5173C133.523 29.0436 136.596 30.43 139.004 29.3688C140.251 28.9223 141.074 27.7717 141.434 26.5354C140.005 26.5069 138.576 26.5247 137.147 26.4853C137.143 25.635 137.139 24.7879 137.143 23.9376C139.526 23.9341 141.913 23.9269 144.3 23.9483C144.447 26.0317 144.139 28.2612 142.785 29.9334C140.93 32.3202 137.504 33.0207 134.716 32.0843C131.758 31.1127 129.607 28.1325 129.671 25.0096Z" fill="#FEFEFE"/>
<path d="M163.837 26.2188V24.7246H158.865V26.3599H161.745L161.737 26.6089C161.704 28.3022 160.458 29.4395 158.632 29.4395C156.499 29.4395 155.163 27.7461 155.163 24.9902C155.163 22.2759 156.474 20.5825 158.566 20.5825C160.102 20.5825 161.172 21.3462 161.604 22.7324H163.737C163.355 20.292 161.33 18.7231 158.566 18.7231C155.154 18.7231 152.971 21.1719 152.971 25.0068C152.971 28.8833 155.129 31.2988 158.599 31.2988C161.795 31.2988 163.837 29.3149 163.837 26.2188ZM169.621 31.1826C172.336 31.1826 173.988 29.4062 173.988 26.4595C173.988 23.5293 172.327 21.7529 169.621 21.7529C166.924 21.7529 165.255 23.5376 165.255 26.4595C165.255 29.4062 166.899 31.1826 169.621 31.1826ZM169.621 29.4976C168.185 29.4976 167.363 28.3853 167.363 26.4678C167.363 24.5503 168.185 23.438 169.621 23.438C171.049 23.438 171.871 24.5503 171.871 26.4678C171.871 28.3853 171.057 29.4976 169.621 29.4976ZM179.573 31.1826C182.287 31.1826 183.939 29.4062 183.939 26.4595C183.939 23.5293 182.279 21.7529 179.573 21.7529C176.875 21.7529 175.206 23.5376 175.206 26.4595C175.206 29.4062 176.85 31.1826 179.573 31.1826ZM179.573 29.4976C178.137 29.4976 177.315 28.3853 177.315 26.4678C177.315 24.5503 178.137 23.438 179.573 23.438C181 23.438 181.822 24.5503 181.822 26.4678C181.822 28.3853 181.009 29.4976 179.573 29.4976ZM189.507 34.4531C192.155 34.4531 193.832 33.1333 193.832 31.0498V21.9272L191.848 21.9272V23.3799H191.707C191.209 22.3921 190.13 21.7778 188.893 21.7778C186.577 21.7778 185.141 23.5874 185.141 26.3682C185.141 29.0908 186.569 30.8672 188.86 30.8672C190.122 30.8672 191.109 30.3359 191.632 29.3564H191.774V31.083C191.774 32.2368 190.952 32.9175 189.541 32.9175C188.412 32.9175 187.681 32.5107 187.548 31.8716H185.482C185.648 33.4321 187.175 34.4531 189.507 34.4531ZM189.507 29.2319C188.071 29.2319 187.258 28.1196 187.258 26.3599C187.258 24.6084 188.071 23.4961 189.507 23.4961C190.935 23.4961 191.807 24.6084 191.807 26.3682C191.807 28.1196 190.943 29.2319 189.507 29.2319ZM196.039 31H198.097V18.416H196.039V31ZM206.214 28.5181C205.916 29.1987 205.21 29.5806 204.189 29.5806C202.836 29.5806 201.964 28.6177 201.915 27.082V26.9741H208.256V26.3184C208.256 23.4712 206.704 21.7529 204.114 21.7529C201.483 21.7529 199.848 23.5874 199.848 26.501C199.848 29.4062 201.458 31.1826 204.131 31.1826C206.272 31.1826 207.792 30.1533 208.165 28.5181H206.214ZM204.106 23.355C205.343 23.355 206.156 24.2266 206.198 25.6045H201.923C202.014 24.2432 202.877 23.355 204.106 23.355Z" fill="white"/>
</svg>
