<svg width="335" height="50" viewBox="0 0 335 50" fill="none" xmlns="http://www.w3.org/2000/svg">
<rect width="335" height="50" rx="10" fill="#1DA1F2"/>
<g clip-path="url(#clip0_104_70)">
<g clip-path="url(#clip1_104_70)">
<rect x="126.5" y="14" width="22" height="22" rx="11" fill="#1DA1F2"/>
<path d="M142.891 22.6224C142.891 22.7427 142.891 22.863 142.891 22.9662C142.891 26.524 140.176 30.6318 135.226 30.6318C133.696 30.6318 132.286 30.1849 131.083 29.4287C131.29 29.4458 131.513 29.463 131.719 29.463C132.974 29.463 134.143 29.0333 135.071 28.3115C133.885 28.2943 132.888 27.5037 132.561 26.438C132.733 26.4724 132.888 26.4896 133.077 26.4896C133.318 26.4896 133.558 26.4552 133.782 26.3865C132.544 26.1458 131.616 25.063 131.616 23.7568C131.616 23.7396 131.616 23.7396 131.616 23.7224C131.977 23.9287 132.39 24.049 132.836 24.0662C132.115 23.5849 131.633 22.7599 131.633 21.8146C131.633 21.3162 131.771 20.8521 131.994 20.4568C133.318 22.0896 135.311 23.1552 137.546 23.2755C137.494 23.0865 137.477 22.863 137.477 22.6568C137.477 21.1615 138.68 19.9583 140.176 19.9583C140.949 19.9583 141.654 20.2849 142.135 20.8005C142.754 20.6802 143.321 20.4568 143.854 20.1474C143.647 20.7833 143.218 21.299 142.668 21.6427C143.218 21.574 143.733 21.4365 144.215 21.213C143.871 21.763 143.424 22.2443 142.891 22.6224Z" fill="#FEFEFE"/>
</g>
<path d="M159.099 31V20.8232H162.793V19.022H153.272V20.8232H156.958V31H159.099ZM175.824 21.9272H173.774L172.271 28.7422H172.13L170.37 21.9272H168.403L166.66 28.7422H166.519L165.008 21.9272H162.933L165.39 31H167.531L169.291 24.4258H169.432L171.2 31H173.367L175.824 21.9272ZM178.263 20.4082C178.944 20.4082 179.5 19.8687 179.5 19.188C179.5 18.5156 178.944 17.9678 178.263 17.9678C177.591 17.9678 177.035 18.5156 177.035 19.188C177.035 19.8687 177.591 20.4082 178.263 20.4082ZM177.242 31H179.292V21.9272H177.242V31ZM182.097 19.7026V21.9854H180.661V23.5874H182.097V28.5928C182.097 30.3442 182.927 31.0415 185.01 31.0415C185.409 31.0415 185.791 31.0083 186.089 30.9502V29.373C185.84 29.3979 185.683 29.4146 185.392 29.4146C184.529 29.4146 184.147 29.0078 184.147 28.103V23.5874H186.089V21.9854H184.147V19.7026H182.097ZM188.446 19.7026V21.9854H187.01V23.5874H188.446V28.5928C188.446 30.3442 189.276 31.0415 191.359 31.0415C191.758 31.0415 192.139 31.0083 192.438 30.9502V29.373C192.189 29.3979 192.032 29.4146 191.741 29.4146C190.878 29.4146 190.496 29.0078 190.496 28.103V23.5874H192.438V21.9854H190.496V19.7026H188.446ZM199.924 28.5181C199.626 29.1987 198.92 29.5806 197.899 29.5806C196.546 29.5806 195.674 28.6177 195.625 27.082V26.9741L201.966 26.9741V26.3184C201.966 23.4712 200.414 21.7529 197.824 21.7529C195.193 21.7529 193.558 23.5874 193.558 26.501C193.558 29.4062 195.168 31.1826 197.841 31.1826C199.982 31.1826 201.502 30.1533 201.875 28.5181L199.924 28.5181ZM197.816 23.355C199.053 23.355 199.866 24.2266 199.908 25.6045H195.633C195.724 24.2432 196.587 23.355 197.816 23.355ZM203.625 31H205.684V25.729C205.684 24.4507 206.614 23.6206 207.95 23.6206C208.299 23.6206 208.846 23.6787 209.004 23.7368V21.8608C208.813 21.811 208.448 21.7778 208.149 21.7778C206.979 21.7778 205.999 22.4419 205.75 23.3384H205.609V21.9272H203.625V31Z" fill="white"/>
</g>
<defs>
<clipPath id="clip0_104_70">
<rect width="83" height="22" fill="white" transform="translate(126.5 14)"/>
</clipPath>
<clipPath id="clip1_104_70">
<rect width="22" height="22" fill="white" transform="translate(126.5 14)"/>
</clipPath>
</defs>
</svg>
